<?xml version='1.0' encoding='utf-8'?>
<svg xmlns="http://www.w3.org/2000/svg" width="1920" height="1080" viewBox="0 0 1920 1080" data-theme="light" data-semantic-intent="taxonomy_list" data-relation-type="taxonomy" data-site-visual-identity="heritage-amber">
  <style>
        @font-face {
            font-family: 'Inter';
            src: url('assets/fonts/Inter-Regular.ttf') format('truetype');
            font-weight: 400;
            font-style: normal;
            font-display: swap;
        }
        @font-face {
            font-family: 'Inter';
            src: url('assets/fonts/Inter-Bold.ttf') format('truetype');
            font-weight: 600;
            font-style: normal;
            font-display: swap;
        }
        @font-face {
            font-family: 'Inter';
            src: url('assets/fonts/Inter-Bold.ttf') format('truetype');
            font-weight: 800;
            font-style: normal;
            font-display: swap;
        }
        
:root {
    --background: #f8fafc;
    --panel: #ffffff;
    --primary-text: #0f172a;
    --muted-text: #64748b;
    --inverse-text: #ffffff;
    --border: #e2e8f0;
    --shadow-color: #000000;
    --icon-pad-bg: #1e293b;
    --art-glow: #0891b2;
    --art-glow-opacity: 0.10;
    --art-sheen: #ffffff;
    --art-sheen-opacity: 0.34;
    --art-shadow: #0f172a;
    --art-shadow-opacity: 0.14;
    --art-muted-line: #94a3b8;
    --art-panel-tint: #f1f5f9;
    --semantic-risk: #b91c1c;
    --semantic-warning: #c2410c;
    --semantic-uncertain: #a16207;
    --semantic-evidence: #1d4ed8;
    --semantic-claim: #6d28d9;
    --semantic-positive: #15803d;
    --semantic-outcome: #0e7490;
    --font-family: 'Inter', 'Segoe UI', 'Kalam', Roboto, Helvetica, Arial, sans-serif;
    --radius-xl: 16px;
    --font-family-headline: 'Segoe UI Variable Display', 'Aptos Display', 'Inter', 'Segoe UI', Helvetica, Arial, sans-serif;
    --font-family-body: 'Segoe UI Variable Text', 'Aptos', 'Inter', 'Segoe UI', Helvetica, Arial, sans-serif;
    --font-heading: var(--font-family-headline);
    --font-body: var(--font-family-body);
    --font-size-h1: 64px;
    --font-size-h2: 42px;
    --font-size-h3: 29px;
    --font-size-body: 21px;
    --font-size-caption: 17px;
    --secondary-text: var(--muted-text);
    --panel-border: var(--border);
    --font-weight-normal: 400;
    --font-weight-medium: 500;
    --font-weight-semibold: 600;
    --font-weight-bold: 700;
    --spacing-gutter-pct: 0.07;
    --spacing-top-pct: 0.15;
    --spacing-bottom-pct: 0.07;
    --spacing-title-y-pct: 0.055;
    --accent-1: #a16207;
    --accent-2: #c2410c;
    --accent-3: #b45309;
    --accent-4: #b91c1c;
    --accent-5: #92400e;
    --accent-6: #0369a1;
}
:root[data-theme="dark"] {
    --background: #0f172a;
    --panel: #1e293b;
    --primary-text: #f1f5f9;
    --muted-text: #94a3b8;
    --inverse-text: #0f172a;
    --border: #334155;
    --shadow-color: #000000;
    --icon-pad-bg: #1e293b;
    --art-glow: #7dd3fc;
    --art-glow-opacity: 0.18;
    --art-sheen: #ffffff;
    --art-sheen-opacity: 0.18;
    --art-shadow: #000000;
    --art-shadow-opacity: 0.28;
    --art-muted-line: #64748b;
    --art-panel-tint: #1e293b;
    --semantic-risk: #f87171;
    --semantic-warning: #fb923c;
    --semantic-uncertain: #fbbf24;
    --semantic-evidence: #60a5fa;
    --semantic-claim: #c084fc;
    --semantic-positive: #4ade80;
    --semantic-outcome: #22d3ee;
    --accent-1: #fbbf24;
    --accent-2: #fb923c;
    --accent-3: #f59e0b;
    --accent-4: #fca5a5;
    --accent-5: #d6a66f;
    --accent-6: #7dd3fc;
}
:root[data-theme="light"] {
    --background: #f8fafc;
    --panel: #ffffff;
    --primary-text: #0f172a;
    --muted-text: #64748b;
    --inverse-text: #ffffff;
    --border: #e2e8f0;
    --shadow-color: #000000;
    --icon-pad-bg: #1e293b;
    --art-glow: #0891b2;
    --art-glow-opacity: 0.10;
    --art-sheen: #ffffff;
    --art-sheen-opacity: 0.34;
    --art-shadow: #0f172a;
    --art-shadow-opacity: 0.14;
    --art-muted-line: #94a3b8;
    --art-panel-tint: #f1f5f9;
    --semantic-risk: #b91c1c;
    --semantic-warning: #c2410c;
    --semantic-uncertain: #a16207;
    --semantic-evidence: #1d4ed8;
    --semantic-claim: #6d28d9;
    --semantic-positive: #15803d;
    --semantic-outcome: #0e7490;
    --accent-1: #a16207;
    --accent-2: #c2410c;
    --accent-3: #b45309;
    --accent-4: #b91c1c;
    --accent-5: #92400e;
    --accent-6: #0369a1;
}</style>
  <rect x="0" y="0" width="1.92E+3" height="1.08E+3" fill="#f8fafc" stroke="none" id="programmatic_background"/>
  <line id="HEADER_DECOR" x1="960.0" x2="1080.0" y1="115.0" y2="115.0" stroke="var(--accent-1)" stroke-width="6" stroke-linecap="round"/>
  <defs>
    <pattern id="svgdb4795e7-napkin-hatch" patternUnits="userSpaceOnUse" width="12" height="12">
      <path d="M -3 12 L 12 -3 M 0 15 L 15 0" fill="none" stroke="var(--primary-text)" stroke-width="1" stroke-opacity="0.05"/>
    </pattern>
    <filter id="svgdb4795e7-shadow" x="-30%" y="-30%" width="160%" height="160%">
      <feDropShadow dx="0" dy="2" stdDeviation="3" flood-color="#000000" flood-opacity="0.08"/>
      <feDropShadow dx="0" dy="6" stdDeviation="10" flood-color="#000000" flood-opacity="0.12"/>
    </filter>
    <radialGradient id="svgdb4795e7-universal-edge-vignette" cx="50%" cy="50%" r="72%">
      <stop offset="0%" stop-color="var(--background)" stop-opacity="0"/>
      <stop offset="72%" stop-color="var(--background)" stop-opacity="0.12"/>
      <stop offset="100%" stop-color="var(--primary-text)" stop-opacity="0.08"/>
    </radialGradient>
    <linearGradient id="svgdb4795e7-universal-surface-sheen" x1="0%" y1="0%" x2="100%" y2="100%">
      <stop offset="0%" stop-color="var(--art-sheen)" stop-opacity="var(--art-sheen-opacity)"/>
      <stop offset="46%" stop-color="var(--art-sheen)" stop-opacity="0.035"/>
      <stop offset="100%" stop-color="var(--art-panel-tint)" stop-opacity="0.14"/>
    </linearGradient>
    <radialGradient id="svgdb4795e7-universal-icon-aura" cx="50%" cy="42%" r="64%">
      <stop offset="0%" stop-color="var(--art-glow)" stop-opacity="var(--art-glow-opacity)"/>
      <stop offset="100%" stop-color="var(--background)" stop-opacity="0"/>
    </radialGradient>
    <linearGradient id="svgdb4795e7-taxonomy-node-sheen" x1="0%" y1="0%" x2="100%" y2="100%">
      <stop offset="0%" stop-color="var(--inverse-text)" stop-opacity="0.18"/>
      <stop offset="100%" stop-color="var(--background)" stop-opacity="0.14"/>
    </linearGradient>
    <filter id="svgdb4795e7-text-glow" x="-20%" y="-20%" width="140%" height="140%">
      <feDropShadow dx="0" dy="0" stdDeviation="2" flood-color="#000000" flood-opacity="0.4"/>
    </filter>
    <marker id="svgdb4795e7-arrowhead" markerWidth="10" markerHeight="7" refX="9" refY="3.5" orient="auto" markerUnits="strokeWidth">
      <polygon points="0 0, 10 3.5, 0 7" fill="var(--muted-text)" opacity="0.6"/>
    </marker>
  </defs>
  <rect width="100%" height="100%" fill="var(--background)" id="CANVAS_BG"/>
  <rect width="100%" height="100%" fill="url(#svgdb4795e7-napkin-hatch)"/>
  <rect id="UNIVERSAL_EDGE_VIGNETTE" width="100%" height="100%" fill="url(#svgdb4795e7-universal-edge-vignette)" opacity="0.62"/>
  <text id="TITLE" x="960.0" y="59" text-anchor="middle" font-weight="800" font-size="56" fill="#0f172a" style="font-size: 69px; font-family: 'Segoe UI Variable Display', 'Aptos Display', 'Inter', 'Segoe UI', Helvetica, Arial, sans-serif; font-weight: 800; font-kerning: normal; font-feature-settings: &quot;kern&quot; 1, &quot;liga&quot; 1; letter-spacing:-1.2px;" data-final-font-size="69">
    <tspan x="960.0" dy="70.47px">Components of the Magenta Narrative</tspan>
  </text>
  <rect id="TITLE_FRAME" x="134" y="39" width="1652" height="103" fill="none"/>
  <g id="DIAGRAM_SCALER" transform="translate(50, 20) scale(0.95)">
    <!-- Parent Node (ITEM_1) - Top Box -->
    <g transform="translate(960, 235)">
      <rect id="ITEM_1_BG" x="-310" y="-90" width="620" height="180" rx="18" fill="var(--panel)" stroke="var(--accent-1)" stroke-width="6" filter="url(#svgdb4795e7-shadow)"/>
      <circle id="ITEM_1_PAD" cx="-140" cy="0" r="52" fill="var(--icon-pad-bg)" stroke="var(--accent-1)" opacity="1" fill-opacity="0.9" stroke-width="2" stroke-opacity="0.72" data-badge-layer="pad"/>
      <circle id="ITEM_1_PAD_INNER" cx="-140" cy="0" r="40.56" fill="var(--accent-1)" fill-opacity="0.12" stroke="none" data-badge-layer="tint"/>
      <circle cx="-140" cy="0" r="42" fill="none" stroke="var(--accent-1)" stroke-width="3" stroke-dasharray="6 4" display="none" data-suppressed-decoration="redundant-badge-ring"/>
      <g id="ITEM_1_ICON" transform="translate(-180, -40)" data-icon-size="80" stroke-linecap="round" stroke-linejoin="round" data-badge-treatment="clean">
        <g transform="translate(-6.354285714285717,-9.975714285714288) scale(2.8971428571428572)">
          <path d="M19.3 23.1376H12.66C8.81996 23.1376 5.70996 20.0276 5.70996 16.1876V11.8276H26.24V16.1876C26.25 20.0276 23.14 23.1376 19.3 23.1376Z" fill="#533566"/>
          <path d="M17.13 5.2775L29.41 11.5675C30.17 11.9575 30.17 13.0475 29.41 13.4375L17.13 19.7275C16.41 20.0975 15.57 20.0975 14.85 19.7275L2.57 13.4375C1.81 13.0475 1.81 11.9575 2.57 11.5675L14.85 5.2775C15.56 4.9075 16.41 4.9075 17.13 5.2775Z" fill="#321B41"/>
          <path d="M15.1499 12.0476C15.3399 11.6376 15.8299 11.4777 16.2299 11.6777L22.9399 15.1176C23.2099 15.2576 23.3699 15.5276 23.3699 15.8276V22.1076C23.9799 22.4076 24.3999 23.0276 24.3999 23.7476C24.3999 23.9076 24.3799 24.0577 24.3399 24.2077C24.3399 24.2177 24.3399 24.2176 24.3399 24.2276C24.3299 24.2676 24.3199 24.3176 24.2999 24.3576C24.2999 24.3676 24.2899 24.3776 24.2899 24.3876C24.2799 24.4276 24.2599 24.4676 24.2399 24.5076C24.2399 24.5176 24.2299 24.5276 24.2299 24.5276C24.1799 24.6376 24.1099 24.7476 24.0399 24.8376C24.0299 24.8576 24.0199 24.8676 23.9999 24.8876L24.4699 27.0876C24.7299 28.2976 23.8099 29.4376 22.5699 29.4376C21.3299 29.4376 20.4099 28.2976 20.6699 27.0876L21.1399 24.8876C20.8899 24.5776 20.7399 24.1876 20.7399 23.7576C20.7399 23.5076 20.7899 23.2676 20.8799 23.0576C20.8799 23.0476 20.8899 23.0376 20.8999 23.0276C20.9099 22.9976 20.9299 22.9577 20.9499 22.9277C20.9699 22.8877 20.9899 22.8476 21.0199 22.8076C21.0299 22.7976 21.0299 22.7876 21.0399 22.7776C21.2199 22.4976 21.4799 22.2676 21.7799 22.1176V16.3176L15.5299 13.1176C15.1399 12.9176 14.9599 12.4376 15.1499 12.0476Z" fill="#FFB02E"/>
        </g>
      </g>
      <rect id="ITEM_1_TEXT_BG" x="-88.0" y="-78.0" width="416.0" height="170.0" rx="22" fill="var(--panel)" fill-opacity="0.94" stroke="none" stroke-opacity="0" stroke-width="1.5"/>
      <text id="ITEM_1_HEAD" x="120.0" y="-45.0" text-anchor="middle" font-weight="bold" font-size="26" fill="var(--accent-1)" data-bg-id="ITEM_1_BG" fill-opacity="1.0" style="font-size: 31px; font-family: 'Segoe UI Variable Display', 'Aptos Display', 'Inter', 'Segoe UI', Helvetica, Arial, sans-serif; font-weight: 700; font-kerning: normal; font-feature-settings: &quot;kern&quot; 1, &quot;liga&quot; 1; letter-spacing:-0.4px;" data-final-font-size="31">
        <tspan x="120.0" dy="31.02px">Historical Figures</tspan>
      </text>
      <rect id="ITEM_1_HEAD_FRAME" x="-70" y="-45" width="380" height="45" fill="none"/>
      <text id="ITEM_1_BODY" x="125.0" y="0.0" text-anchor="middle" font-size="20" fill="var(--primary-text)" opacity="0.9" data-bg-id="ITEM_1_TEXT_BG" style="font-size: 23px; font-family: 'Segoe UI Variable Text', 'Aptos', 'Inter', 'Segoe UI', Helvetica, Arial, sans-serif; font-weight: 400; font-kerning: normal; font-feature-settings: &quot;kern&quot; 1, &quot;liga&quot; 1;" data-final-font-size="23">
        <tspan x="125.0" dy="27.02px">Real scientists like Severi</tspan>
        <tspan x="125.0" dy="26.45px">and Bottazzi were active</tspan>
      </text>
      <rect id="ITEM_1_BODY_FRAME" x="-55" y="0" width="360" height="96" fill="none"/>
    </g>
    <!-- Vertical connector from top box -->
    <path d="M 960 325 L 960 395" stroke="var(--muted-text)" stroke-width="6"/>
    <!-- Horizontal connector bar -->
    <path d="M 270 395 L 1650 395" stroke="var(--muted-text)" stroke-width="6"/>
    <!-- Vertical connectors to children - evenly spaced -->
    <line x1="270" y1="395" x2="270" y2="470" stroke="var(--muted-text)" stroke-width="6"/>
    <line x1="730" y1="395" x2="730" y2="470" stroke="var(--muted-text)" stroke-width="6"/>
    <line x1="1190" y1="395" x2="1190" y2="470" stroke="var(--muted-text)" stroke-width="6"/>
    <line x1="1650" y1="395" x2="1650" y2="470" stroke="var(--muted-text)" stroke-width="6"/>
    <!-- Child Node 1 (ITEM_2) -->
    <g transform="translate(270, 532)">
      <circle id="ITEM_2_PAD" cx="0" cy="0" r="62" fill="var(--icon-pad-bg)" stroke="var(--accent-2)" opacity="1" fill-opacity="0.9" stroke-width="2" stroke-opacity="0.72" data-badge-layer="pad"/>
      <circle id="ITEM_2_PAD_INNER" cx="0" cy="0" r="48.36" fill="var(--accent-2)" fill-opacity="0.12" stroke="none" data-badge-layer="tint"/>
      <circle cx="0" cy="0" r="50" fill="none" stroke="var(--accent-2)" stroke-width="3" stroke-dasharray="6 4" filter="url(#svgdb4795e7-shadow)" display="none" data-suppressed-decoration="redundant-badge-ring"/>
      <g id="ITEM_2_ICON" transform="translate(-38, -38)" data-icon-size="76" stroke-linecap="round" stroke-linejoin="round" data-badge-treatment="clean">
        <g transform="translate(-18.273454545454545,-18.273454545454545) scale(3.5170909090909093)">
          <path d="M24.4853 3.27211C25.6569 2.10054 27.5564 2.10054 28.7279 3.27211C29.8995 4.44368 29.8995 6.34318 28.7279 7.51475L10.6967 25.546C10.5323 25.7104 10.2818 25.7364 10.0903 25.6239C10.018 25.5815 9.94749 25.5336 9.86715 25.51L7.1556 24.7138L6.48825 22.1422C6.46587 22.0559 6.4157 21.98 6.37191 21.9024C6.26436 21.7118 6.29174 21.4657 6.45406 21.3033L24.4853 3.27211Z" fill="#0074BA"/>
          <path d="M23.4265 3.62749C23.817 3.23696 24.4501 3.23696 24.8407 3.62749L29.435 8.22185C29.8256 8.61237 29.8256 9.24554 29.435 9.63606L24.4853 14.5858C24.0948 14.9763 23.4616 14.9763 23.0711 14.5858C22.6805 14.1953 22.6805 13.5621 23.0711 13.1716L27.3137 8.92896L23.4265 5.0417C23.0359 4.65118 23.0359 4.01801 23.4265 3.62749Z" fill="#D3D3D3"/>
          <path d="M13.8805 13.1734C14.0758 12.9781 14.3924 12.9781 14.5876 13.1734L18.8303 17.416C19.0255 17.6113 19.0255 17.9279 18.8303 18.1231L18.1232 18.8302C17.9279 19.0255 17.6113 19.0255 17.4161 18.8302L13.1734 14.5876C12.9782 14.3923 12.9782 14.0757 13.1734 13.8805L13.8805 13.1734Z" fill="#D3D3D3"/>
          <path d="M6.45405 22.0104L9.98958 25.5459L7.98546 27.55C7.6754 27.8601 7.30113 28.0984 6.88902 28.2482L2.80229 29.7337C2.65021 29.789 2.47987 29.7512 2.36544 29.6368C2.25108 29.5224 2.21325 29.3522 2.26841 29.2002L3.75179 25.1119C3.90156 24.6992 4.1401 24.3243 4.45057 24.0139L6.45405 22.0104Z" fill="#D3D3D3"/>
          <path d="M6.8076 26.6065C6.41708 26.997 5.78391 26.997 5.39339 26.6065C5.00286 26.216 5.00286 25.5828 5.39339 25.1923C5.78391 24.8018 6.41708 24.8018 6.8076 25.1923C7.19813 25.5828 7.19813 26.216 6.8076 26.6065Z" fill="#636363"/>
        </g>
      </g>
      <g transform="translate(0, 90)">
        <rect x="-200" y="-15" width="400" height="228" rx="18" fill="var(--accent-2)" fill-opacity="1.0" stroke="var(--accent-2)" id="ITEM_2_BG" stroke-width="3"/>
        <rect id="ITEM_2_TEXT_BG" x="-208.0" y="-9.0" width="416.0" height="228.0" rx="22" fill="var(--panel)" fill-opacity="0.94" stroke="none" stroke-opacity="0" stroke-width="1.5"/>
        <text id="ITEM_2_HEAD" text-anchor="middle" font-weight="bold" font-size="24" fill="var(--inverse-text)" x="0.0" y="6.0" data-bg-id="ITEM_2_BG" fill-opacity="1.0" style="font-size: 31px; font-family: 'Segoe UI Variable Display', 'Aptos Display', 'Inter', 'Segoe UI', Helvetica, Arial, sans-serif; font-weight: 700; font-kerning: normal; font-feature-settings: &quot;kern&quot; 1, &quot;liga&quot; 1; letter-spacing:-0.4px;" data-final-font-size="31">
          <tspan x="0.0" dy="29.52px">Physical Documents</tspan>
        </text>
        <rect id="ITEM_2_HEAD_FRAME" x="-190" y="6" width="380" height="42" fill="none"/>
        <text id="ITEM_2_BODY" text-anchor="middle" font-size="18" fill="var(--primary-text)" x="0.0" y="52.0" data-bg-id="ITEM_2_TEXT_BG" opacity="0.9" style="font-size: 23px; font-family: 'Segoe UI Variable Text', 'Aptos', 'Inter', 'Segoe UI', Helvetica, Arial, sans-serif; font-weight: 400; font-kerning: normal; font-feature-settings: &quot;kern&quot; 1, &quot;liga&quot; 1;" data-final-font-size="23">
          <tspan x="0.0" dy="37.42px">Period-compatible paper and ink</tspan>
          <tspan x="0.0" dy="26.45px">found in some originals</tspan>
        </text>
        <rect id="ITEM_2_BODY_FRAME" x="-190" y="52" width="380" height="148" fill="none"/>
      </g>
    </g>
    <!-- Child Node 2 (ITEM_3) -->
    <g transform="translate(730, 532)">
      <circle id="ITEM_3_PAD" cx="0" cy="0" r="62" fill="var(--icon-pad-bg)" stroke="var(--accent-3)" opacity="1" fill-opacity="0.9" stroke-width="2" stroke-opacity="0.72" data-badge-layer="pad"/>
      <circle id="ITEM_3_PAD_INNER" cx="0" cy="0" r="48.36" fill="var(--accent-3)" fill-opacity="0.12" stroke="none" data-badge-layer="tint"/>
      <circle cx="0" cy="0" r="50" fill="none" stroke="var(--accent-3)" stroke-width="3" stroke-dasharray="6 4" filter="url(#svgdb4795e7-shadow)" display="none" data-suppressed-decoration="redundant-badge-ring"/>
      <g id="ITEM_3_ICON" transform="translate(-38, -38)" data-icon-size="76" stroke-linecap="round" stroke-linejoin="round" data-badge-treatment="clean">
        <g transform="translate(-17.268571428571427,-17.268571428571427) scale(3.454285714285714)">
          <path d="M14.9998 5.5L16.6147 4.98752L16.6662 4.93638C17.1092 4.49106 17.1092 3.78065 16.6768 3.33532C16.2443 2.88999 15.5272 2.89002 15.0842 3.32474L14.0215 4.38018L14.9998 5.5ZM28.659 17.9364L27.9804 18.6117L26.9998 17.5L27.4424 16.0851C27.8529 15.9163 28.3427 15.9981 28.6695 16.3353C29.1116 16.77 29.1116 17.4911 28.659 17.9364Z" fill="#9B9B9B"/>
          <path d="M14.1209 28.8751L12.7723 23.3207C14.5105 22.308 16.1288 21.1049 17.5973 19.7113L21.0251 16.4565L24.4676 14.906L26.411 11.3426L28.7058 9.16379C30.394 7.5596 30.434 4.88261 28.8057 3.2283C27.1674 1.57399 24.5001 1.59405 22.8818 3.26841L20.3602 5.89209L16.2607 7.61854L15.2234 11.2368L12.2628 14.3172C10.8643 15.781 9.63554 17.3952 8.6166 19.1297L3.09231 17.7261C2.78264 17.6459 2.46297 17.7361 2.2332 17.9567C1.79366 18.3978 2.03342 18.9493 2.47296 19.4105L12.4227 29.4968C12.9121 30.0181 13.4316 30.1886 13.8712 29.7474C14.1109 29.5068 14.2008 29.186 14.1209 28.8751Z" fill="#CDC4D6"/>
          <path d="M27.7929 5.76988L26.2533 4.21808C25.9708 3.92892 25.503 3.92894 25.2205 4.20846C24.9282 4.48797 24.9282 4.95062 25.2107 5.23013L26.7503 6.78191C27.0329 7.07106 27.5006 7.07107 27.7831 6.79156C28.0657 6.51204 28.0755 6.05904 27.7929 5.76988Z" fill="#00A6ED"/>
          <path d="M15.2156 11.2449L20.3817 5.8697L8.34626 3.051C7.88626 2.941 7.39625 3.011 6.97625 3.241C5.67625 3.971 5.67625 5.83101 6.96625 6.56101L15.2156 11.2449ZM26.4293 11.3253L21.0085 16.4723L25.46 24.7C26.16 26.01 28.03 26.04 28.78 24.76C29.02 24.35 29.1 23.87 29 23.4L26.4293 11.3253ZM8.15643 22.3151C8.57618 21.8934 9.26303 21.8934 9.68277 22.3246C10.1121 22.7463 10.1025 23.4363 9.67323 23.8579L6.83996 26.6849C6.42022 27.1066 5.73337 27.1066 5.31362 26.6754C4.89388 26.2537 4.89388 25.5637 5.32317 25.1421L8.15643 22.3151Z" fill="#0084CE"/>
        </g>
      </g>
      <g transform="translate(0, 90)">
        <rect x="-200" y="-15" width="400" height="228" rx="18" fill="var(--accent-3)" fill-opacity="1.0" stroke="var(--accent-3)" id="ITEM_3_BG" stroke-width="3"/>
        <rect id="ITEM_3_TEXT_BG" x="-208.0" y="-9.0" width="416.0" height="228.0" rx="22" fill="var(--panel)" fill-opacity="0.94" stroke="none" stroke-opacity="0" stroke-width="1.5"/>
        <text id="ITEM_3_HEAD" text-anchor="middle" font-weight="bold" font-size="24" fill="var(--inverse-text)" x="0.0" y="6.0" data-bg-id="ITEM_3_BG" fill-opacity="1.0" style="font-size: 31px; font-family: 'Segoe UI Variable Display', 'Aptos Display', 'Inter', 'Segoe UI', Helvetica, Arial, sans-serif; font-weight: 700; font-kerning: normal; font-feature-settings: &quot;kern&quot; 1, &quot;liga&quot; 1; letter-spacing:-0.4px;" data-final-font-size="31">
          <tspan x="0.0" dy="29.52px">Aviation Records</tspan>
        </text>
        <rect id="ITEM_3_HEAD_FRAME" x="-190" y="6" width="380" height="42" fill="none"/>
        <text id="ITEM_3_BODY" text-anchor="middle" font-size="18" fill="var(--primary-text)" x="0.0" y="52.0" data-bg-id="ITEM_3_TEXT_BG" opacity="0.9" style="font-size: 23px; font-family: 'Segoe UI Variable Text', 'Aptos', 'Inter', 'Segoe UI', Helvetica, Arial, sans-serif; font-weight: 400; font-kerning: normal; font-feature-settings: &quot;kern&quot; 1, &quot;liga&quot; 1;" data-final-font-size="23">
          <tspan x="0.0" dy="37.42px">State Archives contain reports</tspan>
          <tspan x="0.0" dy="26.45px">of suspicious aircraft activity</tspan>
        </text>
        <rect id="ITEM_3_BODY_FRAME" x="-190" y="52" width="380" height="148" fill="none"/>
      </g>
    </g>
    <!-- Child Node 3 (ITEM_4) -->
    <g transform="translate(1190, 532)">
      <circle id="ITEM_4_PAD" cx="0" cy="0" r="62" fill="var(--icon-pad-bg)" stroke="var(--accent-1)" opacity="1" fill-opacity="0.9" stroke-width="2" stroke-opacity="0.72" data-badge-layer="pad"/>
      <circle id="ITEM_4_PAD_INNER" cx="0" cy="0" r="48.36" fill="var(--accent-1)" fill-opacity="0.12" stroke="none" data-badge-layer="tint"/>
      <circle cx="0" cy="0" r="50" fill="none" stroke="var(--accent-4)" stroke-width="3" stroke-dasharray="6 4" filter="url(#svgdb4795e7-shadow)" display="none" data-suppressed-decoration="redundant-badge-ring"/>
      <g id="ITEM_4_ICON" transform="translate(-38, -38)" data-icon-size="76" stroke-linecap="round" stroke-linejoin="round" data-badge-treatment="clean">
        <g transform="translate(-13.583999999999996,-13.584) scale(0.8059999999999999)">
          <path fill="#543930" d="M109.4 102.62c-1.62-2.96.45-5.96 3.98-9.68c5.6-5.91 11.7-19.6 6.04-33.51c.03-.08-1.12-2.42-1.08-2.5l-2.34-.12c-.75-.11-26.36-.16-52-.16s-51.25.05-52 .16c0 0-3.45 2.54-3.42 2.61c-5.66 13.91.44 27.6 6.04 33.51c3.53 3.72 5.6 6.73 3.98 9.68c-1.57 2.87-6.26 3.29-6.26 3.29s1.08 2.94 3.69 4.52c2.41 1.46 5.37 1.81 7.42 1.86c0 0 8 11.07 28.92 11.07h23.28c20.92 0 28.92-11.07 28.92-11.07c2.05-.05 5.01-.39 7.42-1.86c2.61-1.58 3.69-4.52 3.69-4.52s-4.7-.41-6.28-3.28"/>
          <path fill="url(#SVGdY9H5bIF)" d="M63.99 123.36v-12.29l37.18-2.94l3.38 4.16s-8 11.07-28.92 11.07z"/>
          <path fill="url(#SVGRjr3JbiW)" d="M104.46 106.93c-5.57-8.46 6.78-11.61 6.78-11.61l.01.01c-2.15 2.67-3.12 5-1.86 7.29c1.57 2.87 6.26 3.29 6.26 3.29s-6.38 5.68-11.19 1.02"/>
          <path fill="url(#SVGOt4A1cYO)" d="M119.45 59.42c5.53 13.47-.29 27.34-5.74 33.19c-.75.8-3.92 3.92-4.64 6.4c0 0-12.42-17.31-16.12-27.49c-.75-2.05-1.43-4.17-1.52-6.35c-.07-1.64.19-3.59 1.13-4.98c1.16-1.71 26.23-2.21 26.23-2.21c0 .02.66 1.44.66 1.44"/>
          <path fill="url(#SVGadeejcri)" d="M8.58 59.42c-5.52 13.47.29 27.34 5.74 33.19c.75.8 3.92 3.92 4.64 6.4c0 0 12.42-17.31 16.12-27.49c.75-2.05 1.43-4.17 1.52-6.35c.07-1.64-.19-3.59-1.13-4.98c-1.16-1.71-2.51-1.25-4.47-1.25c-3.75 0-20.15-.96-21.42-.96c0 .02-1 1.44-1 1.44"/>
          <path fill="url(#SVG92L0meJe)" d="M64.04 123.36v-12.29l-37.18-2.94l-3.38 4.16s8 11.07 28.92 11.07z"/>
          <path fill="url(#SVGSvHQJe3Z)" d="M23.57 106.93c5.57-8.46-6.78-11.61-6.78-11.61l-.01.01c2.15 2.67 3.12 5 1.86 7.29c-1.57 2.87-6.26 3.29-6.26 3.29s6.38 5.68 11.19 1.02"/>
          <path fill="#E59600" d="M99.55 64.37h-71.1c-7.67 0-13.94 6.68-13.94 14.85s6.27 14.85 13.94 14.85h71.11c7.67 0 13.94-6.68 13.94-14.85s-6.28-14.85-13.95-14.85"/>
          <path fill="#FFCA28" d="M64 13.15c-22.64 0-43.61 24.21-43.61 59.06C20.39 106.87 42 124 64 124s43.61-17.13 43.61-51.79c0-34.84-20.97-59.06-43.61-59.06"/>
          <path fill="#E59600" d="M69.02 87.29a1.6 1.6 0 0 0-.42-.11h-9.2c-.14.02-.28.05-.42.11c-.83.34-1.29 1.2-.9 2.12c.4.92 2.23 3.5 5.92 3.5s5.52-2.58 5.92-3.5s-.06-1.78-.9-2.12"/>
          <path fill="#795548" d="M74.95 97.71c-4.14 2.46-17.73 2.46-21.87 0c-2.38-1.42-4.81.75-3.82 2.91c.97 2.12 8.38 7.06 14.79 7.06s13.72-4.93 14.7-7.06c.98-2.16-1.42-4.32-3.8-2.91"/>
          <ellipse cx="42.9" cy="75.23" rx="6.32" ry="6.55"/>
          <ellipse cx="85.1" cy="75.23" rx="6.32" ry="6.55"/>
          <path fill="#6D4C41" d="M52.29 63.47c-1.2-1.59-3.99-3.91-9.39-3.91s-8.19 2.32-9.39 3.91c-.53.71-.4 1.52-.03 2.01c.34.46 1.35.88 2.47.5s3.3-1.51 6.95-1.53c3.65.03 5.84 1.15 6.95 1.53s2.13-.04 2.47-.5c.37-.49.5-1.3-.03-2.01m42.21 0c-1.2-1.59-3.99-3.91-9.39-3.91s-8.19 2.32-9.39 3.91c-.53.71-.4 1.52-.03 2.01c.34.46 1.35.88 2.47.5s3.3-1.51 6.95-1.53c3.65.03 5.84 1.15 6.95 1.53c1.12.38 2.13-.04 2.47-.5c.36-.49.5-1.3-.03-2.01"/>
          <path fill="#543930" d="M116.14 31.41c-3.18-4.81-10.29-11.25-16.68-11.67C98.44 13.6 91.86 8.4 85.5 6.38c-17.21-5.45-28.42.66-34.43 3.94c-1.25.68-9.33 5.16-14.98 1.95c-3.54-2.01-3.47-7.46-3.47-7.46s-11.09 4.22-7.3 16c-3.81.16-8.81 1.76-11.45 7.11c-3.15 6.37-2.03 11.7-1.12 14.25c-3.28 2.78-7.4 8.71-4.57 16.4c2.13 5.79 10.63 8.45 10.63 8.45c-.6 10.42 1.34 16.84 2.37 19.43c.18.45.83.41.94-.06c1.28-5.16 5.68-23.15 5.24-26.29c0 0 14.76-2.93 28.84-13.29c2.87-2.11 5.97-3.91 9.27-5.22c17.68-7.04 21.38 4.97 21.38 4.97s12.25-2.35 15.95 14.67c1.39 6.38 2.33 16.59 3.12 23.73c.06.5.74.61.94.14c1.24-2.83 3.71-8.46 4.3-14.19c.21-2.02 5.65-4.69 7.98-13.35c3.14-11.57-.71-22.68-3-26.15"/>
          <path fill="url(#SVGUAEvgdOr)" d="M111.12 70.95c.21-2.02 5.65-4.69 7.98-13.35c.25-.92.46-1.86.65-2.8c1.9-10.53-1.51-20.19-3.63-23.39c-2.94-4.44-9.24-10.27-15.22-11.46c-.52-.07-1.03-.13-1.51-.16c0 0 .43 2.79-.7 5.02c-1.46 2.89-4.43 3.57-4.43 3.57c15.59 15.59 14.48 28.63 16.86 42.57"/>
          <path fill="url(#SVGHbEfrehY)" d="M54.83 8.35c-1.42.69-2.68 1.38-3.77 1.97c-1.25.68-9.33 5.16-14.98 1.95c-3.48-1.98-3.48-7.26-3.47-7.45c-1.6 2.04-6.44 16.63 7.71 17.6c6.1.42 9.87-4.9 12.09-9.41c.81-1.63 2.08-4.02 2.42-4.66"/>
          <path fill="url(#SVGiVALXc3N)" d="M83.72 5.85c9.52 2.58 14.17 7.42 15.72 13.9c.46 1.9 1 19.62-32.83-.52c-12.58-7.49-9.15-12.18-7.67-12.71c5.75-2.09 14.11-3.56 24.78-.67"/>
          <path fill="url(#SVGeHA2TZmO)" d="M32.57 4.82c-.02.01-.04.02-.08.03h-.01c-1.21.51-10.73 4.91-7.17 15.94l10.13 1.63C26.48 13.35 32.61 4.8 32.61 4.8z"/>
          <path fill="url(#SVGUakULe3y)" d="m31.57 21.81l-6.26-1.01c-.24 0-1.08.08-1.53.14c-3.52.49-7.68 2.31-9.92 6.98c-2.42 5.02-2.35 9.33-1.7 12.21c.19.97.58 2.05.58 2.05s3.1-2.94 10.47-3.13z"/>
          <path fill="url(#SVGxypvjeKx)" d="M12.44 42.42c-3.08 2.74-7.24 8.84-4.17 16.4c2.31 5.71 10.53 8.19 10.53 8.19c0 .03 1.64.51 2.49.51l1.92-28.49c-3.94 0-7.72 1.18-10.17 2.88c.02.06-.61.47-.6.51"/>
        </g>
      </g>
      <g transform="translate(0, 90)">
        <rect x="-200" y="-15" width="400" height="228" rx="18" fill="var(--accent-1)" fill-opacity="1.0" stroke="var(--accent-4)" id="ITEM_4_BG" stroke-width="3"/>
        <rect id="ITEM_4_TEXT_BG" x="-208.0" y="-9.0" width="416.0" height="228.0" rx="22" fill="var(--panel)" fill-opacity="0.94" stroke="none" stroke-opacity="0" stroke-width="1.5"/>
        <text id="ITEM_4_HEAD" text-anchor="middle" font-weight="bold" font-size="24" fill="var(--inverse-text)" x="0.0" y="6.0" data-bg-id="ITEM_4_BG" fill-opacity="1.0" style="font-size: 31px; font-family: 'Segoe UI Variable Display', 'Aptos Display', 'Inter', 'Segoe UI', Helvetica, Arial, sans-serif; font-weight: 700; font-kerning: normal; font-feature-settings: &quot;kern&quot; 1, &quot;liga&quot; 1; letter-spacing:-0.4px;" data-final-font-size="31">
          <tspan x="0.0" dy="29.52px">Anonymous Testimony</tspan>
        </text>
        <rect id="ITEM_4_HEAD_FRAME" x="-190" y="6" width="380" height="42" fill="none"/>
        <text id="ITEM_4_BODY" text-anchor="middle" font-size="18" fill="var(--primary-text)" x="0.0" y="52.0" data-bg-id="ITEM_4_TEXT_BG" opacity="0.9" style="font-size: 23px; font-family: 'Segoe UI Variable Text', 'Aptos', 'Inter', 'Segoe UI', Helvetica, Arial, sans-serif; font-weight: 400; font-kerning: normal; font-feature-settings: &quot;kern&quot; 1, &quot;liga&quot; 1;" data-final-font-size="23">
          <tspan x="0.0" dy="37.42px">Mr X provided the framework for a</tspan>
          <tspan x="0.0" dy="26.45px">secret program</tspan>
        </text>
        <rect id="ITEM_4_BODY_FRAME" x="-190" y="52" width="380" height="148" fill="none"/>
      </g>
    </g>
    <!-- Child Node 4 (ITEM_5) -->
    <g transform="translate(1650, 532)">
      <circle id="ITEM_5_PAD" cx="0" cy="0" r="62" fill="var(--icon-pad-bg)" stroke="var(--accent-2)" opacity="1" fill-opacity="0.9" stroke-width="2" stroke-opacity="0.72" data-badge-layer="pad"/>
      <circle id="ITEM_5_PAD_INNER" cx="0" cy="0" r="48.36" fill="var(--accent-2)" fill-opacity="0.12" stroke="none" data-badge-layer="tint"/>
      <circle cx="0" cy="0" r="50" fill="none" stroke="var(--accent-5)" stroke-width="3" stroke-dasharray="6 4" filter="url(#svgdb4795e7-shadow)" display="none" data-suppressed-decoration="redundant-badge-ring"/>
      <g id="ITEM_5_ICON" transform="translate(-38, -38)" data-icon-size="76" stroke-linecap="round" stroke-linejoin="round" data-badge-treatment="clean">
        <g transform="translate(-17.268571428571427,-17.268571428571427) scale(3.454285714285714)">
          <path d="M2 30H6.0317L15.977 27.2248L25.9222 30H30V9.3C30 8.03 28.97 7 27.7 7H4.3C3.03 7 2 8.03 2 9.3V30Z" fill="#9B9B9B"/>
          <path d="M27 14H26C25.45 14 25 13.55 25 13V12C25 11.45 25.45 11 26 11H27C27.55 11 28 11.45 28 12V13C28 13.56 27.55 14 27 14ZM28 18V17C28 16.45 27.55 16 27 16H26C25.45 16 25 16.45 25 17V18C25 18.55 25.45 19 26 19H27C27.55 19 28 18.56 28 18ZM28 23V22C28 21.45 27.55 21 27 21H26C25.45 21 25 21.45 25 22V23C25 23.55 25.45 24 26 24H27C27.55 24 28 23.56 28 23Z" fill="#83CBFF"/>
          <path d="M7 22V23C7 23.55 6.55 24 6 24H5C4.45 24 4 23.55 4 23V22C4 21.45 4.45 21 5 21H6C6.55 21 7 21.45 7 22ZM6 11H5C4.45 11 4 11.45 4 12V13C4 13.55 4.45 14 5 14H6C6.55 14 7 13.55 7 13V12C7 11.45 6.55 11 6 11ZM6 16H5C4.45 16 4 16.45 4 17V18C4 18.55 4.45 19 5 19H6C6.55 19 7 18.55 7 18V17C7 16.45 6.55 16 6 16Z" fill="#83CBFF"/>
          <path d="M26 30H18.9867L15.9711 28.2702L12.9556 30H6V4.46C6 3.1 7.1 2 8.46 2H23.54C24.9 2 26 3.1 26 4.46V30Z" fill="#D3D3D3"/>
          <path d="M19 30H13V26.25C13 25.56 13.56 25 14.25 25H17.75C18.44 25 19.01 25.56 19.01 26.26V30H19Z" fill="#1C1C1C"/>
          <path d="M14.5 18H11.5C11.23 18 11 17.78 11 17.5V15.49C11 15.22 11.22 14.99 11.5 14.99H14.51C14.78 14.99 15.01 15.21 15.01 15.49V17.5C15 17.78 14.78 18 14.5 18ZM21 17.51V15.5C21 15.23 20.78 15 20.5 15H17.5C17.23 15 17 15.22 17 15.5V17.51C17 17.78 17.22 18.01 17.5 18.01H20.51C20.78 18 21 17.78 21 17.51ZM15 22.51V20.5C15 20.23 14.78 20 14.5 20H11.5C11.23 20 11 20.22 11 20.5V22.51C11 22.78 11.22 23.01 11.5 23.01H14.51C14.78 23 15 22.78 15 22.51ZM21 22.51V20.5C21 20.23 20.78 20 20.5 20H17.5C17.23 20 17 20.22 17 20.5V22.51C17 22.78 17.22 23.01 17.5 23.01H20.51C20.78 23 21 22.78 21 22.51ZM15 7.50999V5.5C15 5.23 14.78 5 14.5 5H11.5C11.23 5 11 5.22 11 5.5V7.50999C11 7.77999 11.22 8.00999 11.5 8.00999H14.51C14.78 7.99999 15 7.77999 15 7.50999ZM21 7.50999V5.5C21 5.23 20.78 5 20.5 5H17.5C17.23 5 17 5.22 17 5.5V7.50999C17 7.77999 17.22 8.00999 17.5 8.00999H20.51C20.78 7.99999 21 7.77999 21 7.50999ZM15 12.51V10.5C15 10.23 14.78 10 14.5 10H11.5C11.23 10 11 10.22 11 10.5V12.51C11 12.78 11.22 13.01 11.5 13.01H14.51C14.78 13 15 12.78 15 12.51ZM21 12.51V10.5C21 10.23 20.78 10 20.5 10H17.5C17.23 10 17 10.22 17 10.5V12.51C17 12.78 17.22 13.01 17.5 13.01H20.51C20.78 13 21 12.78 21 12.51Z" fill="#83CBFF"/>
        </g>
      </g>
      <g transform="translate(0, 90)">
        <rect x="-200" y="-15" width="400" height="228" rx="18" fill="var(--accent-2)" fill-opacity="1.0" stroke="var(--accent-5)" id="ITEM_5_BG" stroke-width="3"/>
        <rect id="ITEM_5_TEXT_BG" x="-208.0" y="-9.0" width="416.0" height="228.0" rx="22" fill="var(--panel)" fill-opacity="0.94" stroke="none" stroke-opacity="0" stroke-width="1.5"/>
        <text id="ITEM_5_HEAD" text-anchor="middle" font-weight="bold" font-size="24" fill="var(--inverse-text)" x="0.0" y="6.0" data-bg-id="ITEM_5_BG" fill-opacity="1.0" style="font-size: 31px; font-family: 'Segoe UI Variable Display', 'Aptos Display', 'Inter', 'Segoe UI', Helvetica, Arial, sans-serif; font-weight: 700; font-kerning: normal; font-feature-settings: &quot;kern&quot; 1, &quot;liga&quot; 1; letter-spacing:-0.4px;" data-final-font-size="31">
          <tspan x="0.0" dy="29.52px">Institutional Links</tspan>
        </text>
        <rect id="ITEM_5_HEAD_FRAME" x="-190" y="6" width="380" height="42" fill="none"/>
        <text id="ITEM_5_BODY" text-anchor="middle" font-size="18" fill="var(--primary-text)" x="0.0" y="52.0" data-bg-id="ITEM_5_TEXT_BG" opacity="0.9" style="font-size: 23px; font-family: 'Segoe UI Variable Text', 'Aptos', 'Inter', 'Segoe UI', Helvetica, Arial, sans-serif; font-weight: 400; font-kerning: normal; font-feature-settings: &quot;kern&quot; 1, &quot;liga&quot; 1;" data-final-font-size="23">
          <tspan x="0.0" dy="37.42px">Alleged connections to Mussolini</tspan>
          <tspan x="0.0" dy="26.45px">and the Stefani Agency</tspan>
        </text>
        <rect id="ITEM_5_BODY_FRAME" x="-190" y="52" width="380" height="148" fill="none"/>
      </g>
    </g>
  </g>
  <text id="SOURCE_NOTE" x="134.0" y="1058.0" fill="var(--muted-text)" opacity="1" style="font-family: var(--font-family); font-size: 20px;">Source: Il Gabinetto RS-33</text>
  <text id="EDITORIAL_NOTE" x="1786.0" y="1058.0" fill="var(--semantic-uncertain)" opacity="1" style="font-family: var(--font-family); font-size: 20px;" text-anchor="end">Interpretations remain disputed; wording reflects source uncertainty.</text>
</svg>
